<svg width="637" height="372" viewBox="0 0 637 372" fill="none" xmlns="http://www.w3.org/2000/svg">
<g filter="url(#filter0_d_319_129)">
<path d="M308.156 320.442C263.14 320.442 167.788 324.548 132.542 327.115C97.2952 329.681 20 342 20 342C20 342 258.069 338.407 326.089 338.407L616.719 338.407C616.719 338.407 541.279 322.853 465.22 320.442C413.683 318.808 335.725 320.442 308.156 320.442Z" fill="#FBD348"/>
<path d="M318.536 275.148C319.572 273.78 326.187 248.773 328.44 244.198L342.5 247.573C342.5 247.573 329.45 266.545 329.45 268.832C329.45 271.12 329.149 276.365 327.025 278.522C324.773 280.81 320.632 288.697 316.127 290.984C311.377 293.396 305.624 298.096 304.122 301.146C302.698 304.04 308.618 307.76 311.621 308.523C314.625 309.285 321.383 316.91 319.881 318.436C318.38 319.961 303.407 321.008 299.606 318.436C297.354 316.91 293.599 307.135 293.599 298.61C293.599 295.559 311.026 285.061 318.536 275.148Z" fill="#FBD348"/>
<path d="M190.243 277.624C191.279 276.256 221.812 254.102 228.002 252.864C228.002 252.864 227.366 261.53 226.747 263.387C226.128 265.244 221.812 269.577 214.367 274.529C209.459 279.773 202.623 285.052 202.623 285.052C202.623 285.052 223.05 281.957 231.097 279.481C235.442 278.144 245.589 275.985 249.667 274.529C258.333 271.434 258.333 274.349 258.333 275.148C258.333 277.435 240.03 282.895 237.906 285.052C235.653 287.339 214.181 289.654 209.676 291.941C204.926 294.353 205.982 297.477 204.48 300.527C203.055 303.42 206.672 308.43 209.676 309.193C212.679 309.955 214.932 317.868 213.43 319.393C211.928 320.918 190.948 321.966 187.148 319.393C184.895 317.868 183.434 307.195 183.434 298.67C183.434 295.62 182.733 287.537 190.243 277.624Z" fill="#FBD348"/>
<path d="M494.775 171.774C490.705 179.915 478.062 214.739 478.062 214.739L495.157 233.463C496.514 231.834 497.939 209.041 498.414 203.342C499.117 194.905 504.436 168.679 508.15 148.871C508.15 148.871 500.474 160.377 494.775 171.774Z" fill="#FBD348"/>
<path d="M490.516 129.102C479.559 137.071 452.675 159.207 437.208 175.488L452.255 190.97C454.698 187.714 459.046 180.654 464.444 174.25C472.148 165.111 481.247 152.937 489.204 144.538C500.346 132.777 507.155 124.111 519.535 112.969C511.488 116.064 501.474 121.133 490.516 129.102Z" fill="#FBD348"/>
<path d="M553.58 90.6849C553.58 90.6849 522.63 94.3991 513.964 95.6371C503.401 97.1461 487.347 102.446 467.539 114.826C441.446 128.447 416.78 149.49 416.78 149.49C416.78 149.49 414.051 145.157 412.447 141.443C410.844 137.729 408.733 132.158 408.733 132.158L422.949 124.217C427.833 121.775 438.558 113.916 466.908 100.609C506.797 81.8859 534.314 88.7854 553.58 90.6849Z" fill="#FBD348"/>
<path d="M466.908 63.9766C456.325 62.3484 442.16 54.7827 442.16 54.7827C442.16 54.7827 446.964 63.142 451.441 67.2328C457.529 72.7962 461.646 76.3931 470.164 77.0016C477.491 77.5249 488.345 68.0469 491.33 63.1625L484.004 63.9766C480.476 63.9766 474.15 65.0906 466.908 63.9766Z" fill="#FBD348"/>
<path d="M532.847 99.7957C532.847 99.7957 507.316 112.036 504.06 114.207C499.516 117.236 492.091 121.287 484.252 127.206C469.132 138.622 449.873 155.866 432.718 169.805C432.718 169.805 428.426 165.203 426.066 162.489C423.627 159.684 420.495 155.68 420.495 155.68C420.495 155.68 431.402 147.17 451.441 132.358C488.888 104.68 513.31 102.238 532.847 99.7957Z" fill="#FBD348"/>
<path d="M524.706 68.0467C519.822 63.1622 514.124 62.3478 505.169 62.3479C505.983 68.0467 508.499 73.6049 511.681 75.373C519.008 79.4436 523.892 77.8155 529.591 77.0011C528.777 74.5593 528.544 71.8843 524.706 68.0467Z" fill="#FBD348"/>
<path d="M493.772 83.5134H470.164C465.196 83.5134 461.468 82.2094 456.397 79.9433C450.13 77.1431 444.574 72.5357 442.16 69.6387C442.16 69.6387 442.796 73.8717 443.398 76.4477C444.107 79.4832 447.112 83.5134 447.112 83.5134C447.112 83.5134 436.837 85.6737 431.018 88.8278C416.726 96.5741 408.733 103.684 406.667 122.589C408.944 120.692 430.041 109.671 446.493 102.446C462.945 95.2208 493.772 83.5134 493.772 83.5134Z" fill="#FBD348"/>
<path d="M492.145 41.9965C455.512 41.9965 457.954 44.4387 440.044 30.5996C440.044 30.5996 441.658 37.6972 444.115 41.9965C447.371 47.695 458.768 56.6497 466.909 56.6497L524.707 57.4637L534.476 65.6044C548.315 65.6044 561.34 65.6044 565.41 72.9309C570.361 81.8418 568.667 90.8403 567.038 98.981C573.551 94.9107 584.134 85.956 582.506 68.8606C580.878 51.7653 551.571 46.8809 535.29 48.509L529.591 41.9965H492.145Z" fill="#FBD348"/>
<path d="M476.677 169.805C474.723 172.41 462.838 189.071 458.768 196.669L471.793 209.694C471.793 209.694 475.62 198.943 478.062 194.058C479.918 190.345 484.798 178.728 487.347 173.631C497.193 153.938 504.679 144.145 515.202 129.682C515.202 129.682 507.611 133.986 496.215 145.383C492.064 149.534 479.119 166.548 476.677 169.805Z" fill="#FBD348"/>
<path d="M463.206 251.081C463.206 242.232 466.301 223.845 470.015 217.655L456.397 204.037C456.397 204.037 449.842 230.694 448.969 236.225C447.112 247.987 447.112 251.822 447.112 261.605C447.112 274.604 448.969 284.508 450.826 297.507C452.683 310.506 455.175 319.683 455.893 323.984C456.416 327.11 463.876 325.981 472.491 325.981C474.461 325.981 485.452 326.166 488.585 324.603C490.716 323.539 485.717 318.118 480.538 314.22C478.105 312.389 471.863 311.239 470.634 309.887C467.821 306.792 466.301 290.079 465.063 282.032C463.623 272.673 463.206 260.986 463.206 251.081Z" fill="#FBD348"/>
<path d="M419.876 274.604C422.67 264.611 426.685 259.312 431.018 248.17C434.564 239.052 437.43 228.178 441.541 215.723C445.651 203.268 448.35 196.534 448.35 196.534L434.732 181.753C434.732 181.753 430.709 194.261 429.161 201.486C427.304 210.152 416.57 241.377 416.57 241.377C416.57 241.377 413.454 237.073 411.189 232.768C408.924 228.463 401.305 212.703 401.305 212.703C401.305 212.703 401.504 227.387 403.781 233.749C406.059 240.112 407.496 251.7 407.496 256.653C407.496 261.605 403.869 271.509 402.543 280.175C401.218 288.841 402.543 296.104 402.543 301.643C402.543 310.137 399.962 317.161 401.305 320.41C402.266 322.732 407.547 323.984 416.162 323.984C422.836 323.984 433.494 321.648 432.256 319.294C429.78 314.587 420.092 303.611 418.638 299.983C417.071 296.075 416.781 285.671 419.876 274.604Z" fill="#FBD348"/>
<path d="M295.34 256.767C295.34 256.767 285.824 266.295 280.6 271.509C279.034 273.072 271.279 280.447 261.411 284.508C258.278 285.797 244.449 289.882 238.508 290.623C232.242 291.404 211.169 295.065 209.415 298.67C207.005 303.622 210.653 307.014 216.224 313.823C219.938 318.775 221.795 322.267 210.034 324.743C205.936 325.605 201.565 325.771 197.035 325.981C192.827 326.175 193.316 326.115 188.035 325.362C182.553 324.58 184.904 323.936 184.035 318.478C180.903 298.787 177.336 282.7 180.995 278.652C184.654 274.604 197.723 270.14 208.796 260.367C213.353 256.344 218.393 248.951 220.155 241.917C221.525 236.446 220.155 201.275 220.155 201.275C220.155 201.275 209.19 221.218 196.659 238.702C189.821 248.243 171.597 267.394 160.633 268.958C148.133 270.74 133.809 270.836 126.173 256.767C122.002 249.084 123.532 230.263 133.221 216.906C141.158 205.964 138.662 211.15 148.885 195.804C154.566 187.275 152.018 183.94 151.234 180.172C150.451 176.404 148.67 170.578 145.752 167.666C142.619 164.54 137.137 158.287 137.137 158.287C137.137 158.287 140.598 159.521 144.186 161.017C148.885 162.977 151.428 164.294 152.801 165.322C154.136 166.321 158.283 170.011 159.849 173.138C161.615 176.662 162.199 180.172 162.199 180.172C162.199 180.172 164.549 173.919 162.982 170.793C162.199 169.23 159.066 164.54 159.066 164.54C159.066 164.54 161.416 165.322 164.549 167.666C166.429 169.074 167.668 170.515 168.465 171.574C169.275 172.653 169.82 174.496 170.179 176.264C170.67 178.678 170.031 180.953 170.031 180.953C170.031 180.953 172.38 178.609 173.164 177.045C174.284 174.808 173.164 171.574 173.164 171.574C173.164 171.574 175.513 175.386 175.513 178.609C175.513 184.08 172.552 188.948 168.465 195.022C164.549 199.711 161.835 203.201 159.066 205.964C155.15 209.872 152.591 211.735 148.885 215.427C144.318 219.976 138.589 227.778 137.61 229.341C135.755 232.306 132.438 239.802 133.221 246.055C134.358 255.132 147.318 264.068 160.633 257.816C165.911 255.337 179.367 244.466 190.225 228.179C217.462 187.325 208.33 192.412 220.155 170.793C225.343 161.308 232.973 151.422 237.925 149.565C247.437 145.998 260.262 144.606 261.027 144.526C261.049 144.523 261.063 144.522 261.063 144.522C261.063 144.522 261.051 144.523 261.027 144.526C260.758 144.564 259.217 144.993 264.829 149.565C270.148 153.898 267.801 156.139 265.368 156.36C259.449 156.898 252.453 160.88 250.839 161.741C246.214 164.207 241.376 168.102 239.001 174.117C235.892 181.993 234.487 195.022 236.032 212.009C237.168 224.505 238.508 242.34 232.318 255.34C230.514 259.128 227.366 263.462 224.271 266.557C220.588 270.239 193.654 278.525 191.177 280.996C188.827 283.341 184.154 287.684 184.903 300.385C185.686 313.672 186.263 318.259 188.035 319.143C191.168 320.707 205.274 321.639 207.624 320.076C209.081 319.106 209.19 317.731 207.624 313.823C206.057 309.915 197.442 296.628 196.659 295.065C195.959 293.667 200.575 288.031 215.456 286.468C217.792 286.222 244.079 278.318 257.078 271.509C263.771 268.003 269.572 265.269 275.648 259.112C280.778 253.914 287.409 248.485 293.599 239.939C304.384 225.05 310.312 212.703 310.312 212.703C310.312 212.703 310.81 224.507 308.953 230.078C307.096 235.649 304.741 238.701 304.741 238.701C304.741 238.701 315.883 237.463 322.073 237.463C328.882 237.463 337.755 237.464 343.119 238.083C348.484 238.702 353.818 240.391 362.927 242.415C368.498 243.653 374.637 244.891 378.402 244.891C382.116 244.891 387.687 245.51 392.639 244.891C398.654 244.14 403.781 243.034 403.781 243.034C403.781 243.034 400.877 247.55 395.115 251.007C395.115 251.007 388.306 254.177 377.164 254.177C368.143 254.177 357.579 252.228 346.395 249.876C344.054 253.709 338.469 263.175 336.31 269.652C334.453 275.223 330.007 281.526 327.025 284.508C323.93 287.603 320.835 289.46 316.502 292.555C313.902 294.412 308.437 297.232 310.312 303.796C310.843 305.653 316.919 309.074 320.835 312.982C323.659 315.8 328.174 321.935 322.692 324.124C320.734 324.905 297.477 324.905 296.694 324.124C295.073 322.506 294.382 313.823 293.599 311.478C292.572 308.403 290.504 295.19 292.361 291.317C295.003 285.805 314.56 275.568 317.74 266.557C320.194 259.604 323.458 252.111 325.391 247.827C322.075 247.852 318.537 247.952 315.264 248.17C311.303 248.434 307.503 248.435 304.741 249.843C302.582 250.945 295.34 256.767 295.34 256.767Z" fill="#FBD348"/>
<path d="M279.673 39.5546C219.093 39.5546 172.399 18.9547 158.288 10C158.288 10 179.812 32.5997 191.65 39.5546C214.772 53.139 228.37 54.6647 249.553 58.4279C269.455 61.9634 344.798 59.0921 374.105 59.0921C403.411 59.0921 408.499 58.0706 408.499 61.6564C408.499 63.2707 397.591 72.9312 397.591 72.9312C382.667 73.2025 340.7 72.9312 340.7 72.9312C340.7 72.9312 316.306 67.5041 310.608 63.1624L316.306 72.9312H268.276C233.262 72.9312 227.164 70.5787 203.151 59.9062C195.825 56.6499 167.974 41.7472 167.974 41.7472C167.974 41.7472 186.87 63.6276 195.825 71.303C212.92 85.9562 239.784 90.8406 247.925 90.8406H385.361C385.361 90.8406 382.912 94.8994 381.594 99.3225C380.385 103.381 378.904 107.914 378.904 109.546C359.095 109.546 319.562 109.564 316.306 109.564C313.05 109.564 297.583 101.695 288.628 98.1672L295.5 109.564C288.174 109.564 269.311 110.662 254.068 108.47C239.638 106.395 227.701 101.947 220.168 99.3225C195.825 90.8406 179.812 78.8752 179.812 78.8752C179.812 78.8752 190.94 92.7823 203.151 102.551C218.046 114.467 236.528 123.403 249.553 125.031C263.66 126.795 341.15 126.858 377.783 126.587C377.783 126.587 377.728 132.186 378.366 135.374C378.904 138.065 379.98 141.293 379.98 141.293C364.242 141.293 332.913 141.313 327.703 141.313C326.171 141.313 308.708 135.343 303.281 132.358L309.074 141.313C299.034 141.041 273.994 141.313 263.392 141.313C252.875 141.313 237.988 134.658 229.406 130.821L229.201 130.73C219.538 126.41 193.802 112.237 193.802 112.237C193.802 112.237 208.295 130.107 215.362 135.614C235.773 151.517 239.001 151.398 250.301 155.284C261.601 159.169 387.687 159.394 387.687 159.394L394.187 168.37L400.686 177.345H358.995C356.553 177.345 334.243 166.045 334.243 166.045L341.238 177.345H309.074C298.381 177.345 294.883 176.698 283.076 176.107C270.696 175.488 258.316 168.06 258.316 168.06C258.316 168.06 269.905 188.528 296.769 192.599C315.158 195.385 393.642 195.855 411.552 194.227C423.763 193.117 423.946 178.287 419.876 171.774C417.27 167.605 412.548 161.125 408.114 153.823C404.242 147.445 400.565 141.828 397.591 132.158C393.702 119.511 399.204 104.437 406.876 93.7798C415.073 82.3955 425.704 75.6151 428.647 68.0468C433.206 56.3243 427.658 41.9821 418.064 41.1827C399.78 39.659 343.984 39.5546 279.673 39.5546Z" fill="#FBD348"/>
</g>
<defs>
<filter id="filter0_d_319_129" x="0" y="0" width="636.719" height="372" filterUnits="userSpaceOnUse" color-interpolation-filters="sRGB">
<feFlood flood-opacity="0" result="BackgroundImageFix"/>
<feColorMatrix in="SourceAlpha" type="matrix" values="0 0 0 0 0 0 0 0 0 0 0 0 0 0 0 0 0 0 127 0" result="hardAlpha"/>
<feOffset dy="10"/>
<feGaussianBlur stdDeviation="10"/>
<feComposite in2="hardAlpha" operator="out"/>
<feColorMatrix type="matrix" values="0 0 0 0 0 0 0 0 0 0 0 0 0 0 0 0 0 0 0.25 0"/>
<feBlend mode="normal" in2="BackgroundImageFix" result="effect1_dropShadow_319_129"/>
<feBlend mode="normal" in="SourceGraphic" in2="effect1_dropShadow_319_129" result="shape"/>
</filter>
</defs>
</svg>
