<svg width="337" height="77" viewBox="0 0 337 77" fill="none" xmlns="http://www.w3.org/2000/svg">
<path d="M68.5837 60.8804C68.8217 60.5663 70.3415 54.8244 70.859 53.7739L74.0892 54.549C74.0892 54.549 71.0912 58.905 71.0912 59.4302C71.0912 59.9555 71.022 61.1599 70.5341 61.6551C70.0166 62.1804 69.0654 63.9913 68.0303 64.5165C66.9392 65.0702 65.6175 66.1494 65.2725 66.8498C64.9452 67.5142 66.3052 68.3684 66.9953 68.5435C67.6853 68.7186 69.2379 70.4694 68.8929 70.8196C68.5479 71.1698 65.1082 71.4104 64.2351 70.8196C63.7175 70.4694 62.855 68.2249 62.855 66.2674C62.855 65.567 66.8586 63.1565 68.5837 60.8804Z" fill="#FBD348"/>
<path d="M39.1107 61.4488C39.3487 61.1348 46.3632 56.0479 47.7853 55.7637C47.7853 55.7637 47.6391 57.7535 47.4969 58.1799C47.3547 58.6062 46.3632 59.6011 44.6528 60.7382C43.5254 61.9423 41.9548 63.1544 41.9548 63.1544C41.9548 63.1544 46.6476 62.4437 48.4963 61.8752C49.4944 61.5682 51.8257 61.0726 52.7625 60.7382C54.7533 60.0275 54.7534 60.6969 54.7534 60.8803C54.7534 61.4056 50.5485 62.6591 50.0606 63.1544C49.543 63.6796 44.6101 64.211 43.5751 64.7363C42.484 65.29 42.7264 66.0072 42.3815 66.7076C42.0542 67.372 42.885 68.5223 43.5751 68.6974C44.2651 68.8725 44.7826 70.6892 44.4376 71.0394C44.0926 71.3896 39.2728 71.6302 38.3997 71.0394C37.8822 70.6892 37.5465 68.2387 37.5465 66.2812C37.5465 65.5809 37.3855 63.7249 39.1107 61.4488Z" fill="#FBD348"/>
<path d="M102.67 12.3935C100.239 12.0196 96.9844 10.2825 96.9844 10.2825C96.9844 10.2825 98.0881 12.2018 99.1166 13.1411C100.515 14.4185 101.461 15.2444 103.418 15.3841C105.101 15.5043 107.595 13.328 108.28 12.2065L106.597 12.3935C105.787 12.3935 104.334 12.6493 102.67 12.3935Z" fill="#FBD348"/>
<path d="M115.948 13.328C114.826 12.2065 113.517 12.0195 111.459 12.0195C111.646 13.328 112.225 14.6043 112.956 15.0102C114.639 15.9449 115.761 15.571 117.07 15.384C116.883 14.8234 116.83 14.2092 115.948 13.328Z" fill="#FBD348"/>
<path d="M108.841 16.8794H103.418C102.277 16.8794 101.42 16.58 100.255 16.0596C98.8155 15.4167 97.5389 14.3588 96.9843 13.6936C96.9843 13.6936 97.1304 14.6655 97.2687 15.257C97.4317 15.954 98.122 16.8794 98.122 16.8794C98.122 16.8794 95.7615 17.3754 94.4246 18.0996C91.1414 19.8782 89.3052 21.5107 88.8306 25.8514C89.3535 25.4159 94.2002 22.8854 97.9798 21.2264C101.759 19.5675 108.841 16.8794 108.841 16.8794Z" fill="#FBD348"/>
<path d="M108.467 7.34681C100.051 7.34681 100.612 7.90756 96.498 4.72998C96.498 4.72998 96.8687 6.35965 97.4331 7.34681C98.1812 8.65523 100.799 10.7113 102.67 10.7113L115.948 10.8982L118.192 12.7674C121.371 12.7674 124.364 12.7674 125.299 14.4496C126.436 16.4957 126.047 18.5618 125.673 20.431C127.169 19.4964 129.6 17.4403 129.226 13.5151C128.852 9.58981 122.12 8.46831 118.379 8.84214L117.07 7.34681H108.467Z" fill="#FBD348"/>
<path d="M66.1992 71.2803C55.8574 71.2803 33.952 72.2231 25.8546 72.8124C17.7573 73.4016 0 76.2302 0 76.2302C0 76.2302 54.6925 75.4052 70.3189 75.4052L137.086 75.4052C137.086 75.4052 119.755 71.8339 102.282 71.2803C90.4422 70.9051 72.5328 71.2803 66.1992 71.2803Z" fill="#FBD348"/>
<path d="M109.072 37.145C108.137 39.0142 105.232 47.0102 105.232 47.0102L109.16 51.3093C109.471 50.9354 109.799 45.7019 109.908 44.3933C110.069 42.4561 111.291 36.4343 112.145 31.8862C112.145 31.8862 110.381 34.5282 109.072 37.145Z" fill="#FBD348"/>
<path d="M108.093 27.3468C105.576 29.1765 99.4 34.2592 95.8467 37.9976L99.3036 41.5524C99.8646 40.8047 100.864 39.1837 102.104 37.7133C103.874 35.6149 105.964 32.8197 107.792 30.8911C110.352 28.1907 111.916 26.2009 114.76 23.6426C112.911 24.3532 110.611 25.517 108.093 27.3468Z" fill="#FBD348"/>
<path d="M122.581 18.5259C122.581 18.5259 115.471 19.3787 113.48 19.6629C111.053 20.0094 107.365 21.2264 102.815 24.0689C96.8203 27.1965 91.1539 32.0281 91.1539 32.0281C91.1539 32.0281 90.5267 31.0332 90.1584 30.1804C89.7901 29.3277 89.3052 28.0485 89.3052 28.0485L92.5709 26.2252C93.693 25.6644 96.1569 23.86 102.67 20.8045C111.834 16.5055 118.155 18.0897 122.581 18.5259Z" fill="#FBD348"/>
<path d="M117.819 20.6179C117.819 20.6179 111.953 23.4284 111.205 23.9269C110.161 24.6224 108.455 25.5525 106.655 26.9116C103.181 29.5329 98.7565 33.4922 94.8153 36.6927C94.8153 36.6927 93.8293 35.6361 93.2872 35.0129C92.727 34.3689 92.0073 33.4495 92.0073 33.4495C92.0073 33.4495 94.5131 31.4954 99.1168 28.0946C107.72 21.7394 113.33 21.1787 117.819 20.6179Z" fill="#FBD348"/>
<path d="M104.914 36.6928C104.465 37.2909 101.735 41.1165 100.8 42.861L103.792 45.8517C103.792 45.8517 104.671 43.3831 105.232 42.2616C105.659 41.4091 106.78 38.7416 107.365 37.5714C109.627 33.0497 111.347 30.801 113.765 27.4802C113.765 27.4802 112.021 28.4684 109.403 31.0853C108.449 32.0384 105.475 35.9451 104.914 36.6928Z" fill="#FBD348"/>
<path d="M101.819 55.3545C101.819 53.3226 102.53 49.1008 103.384 47.6795L100.255 44.5527C100.255 44.5527 98.7493 50.6734 98.5487 51.9434C98.1221 54.6439 98.1221 55.5245 98.1221 57.7707C98.1221 60.7554 98.5487 63.0294 98.9753 66.0141C99.4019 68.9988 99.9745 71.1059 100.14 72.0935C100.259 72.8113 101.973 72.5521 103.953 72.5521C104.405 72.5521 106.93 72.5945 107.65 72.2356C108.14 71.9914 106.991 70.7467 105.801 69.8516C105.242 69.4311 103.808 69.1673 103.526 68.8567C102.88 68.1461 102.53 64.3086 102.246 62.4609C101.915 60.3121 101.819 57.6285 101.819 55.3545Z" fill="#FBD348"/>
<path d="M91.865 60.7554C92.507 58.4609 93.4293 57.2443 94.4247 54.6859C95.2393 52.5924 95.898 50.0957 96.8422 47.2359C97.7865 44.3762 98.4065 42.8299 98.4065 42.8299L95.2779 39.4361C95.2779 39.4361 94.3538 42.3079 93.9981 43.967C93.5715 45.9568 91.1056 53.1263 91.1056 53.1263C91.1056 53.1263 90.3898 52.1379 89.8695 51.1495C89.3492 50.1611 87.5988 46.5425 87.5988 46.5425C87.5988 46.5425 87.6444 49.9141 88.1677 51.3749C88.6909 52.8357 89.0209 55.4966 89.0209 56.6336C89.0209 57.7707 88.1878 60.0447 87.8832 62.0345C87.5787 64.0243 87.8832 65.6922 87.8832 66.9639C87.8832 68.9142 87.2901 70.527 87.5988 71.2729C87.8195 71.8061 89.0326 72.0935 91.0118 72.0935C92.5451 72.0935 94.9935 71.5572 94.7091 71.0167C94.1403 69.9359 91.9147 67.4158 91.5806 66.5826C91.2207 65.6854 91.154 63.2965 91.865 60.7554Z" fill="#FBD348"/>
<path d="M63.2551 56.66C63.2551 56.66 61.0689 58.8476 59.8687 60.0447C59.5088 60.4037 57.7274 62.097 55.4603 63.0294C54.7406 63.3254 51.5637 64.2633 50.1987 64.4335C48.7593 64.613 43.918 65.4535 43.515 66.2812C42.9614 67.4182 43.7994 68.1971 45.0793 69.7605C45.9325 70.8975 46.3591 71.6993 43.6572 72.2678C42.7159 72.4659 41.7116 72.5039 40.6709 72.5521C39.7042 72.5967 39.8166 72.5828 38.6035 72.4099C37.3441 72.2305 37.8841 72.0826 37.6846 70.8293C36.9649 66.3082 36.1456 62.6143 36.9862 61.6849C37.8268 60.7554 40.8291 59.7304 43.3728 57.4864C44.4198 56.5628 45.5776 54.8654 45.9824 53.2503C46.2973 51.994 45.9824 43.9184 45.9824 43.9184C45.9824 43.9184 43.4635 48.4976 40.5847 52.512C39.0136 54.7029 34.8271 59.1001 32.3082 59.459C29.4367 59.8682 26.146 59.8903 24.3915 56.66C23.4334 54.8958 23.785 50.5744 26.0108 47.5076C27.8343 44.9951 27.2609 46.1859 29.6093 42.6622C30.9144 40.704 30.329 39.9381 30.1491 39.073C29.9692 38.2078 29.5599 36.8702 28.8896 36.2016C28.1699 35.4838 26.9105 34.0481 26.9105 34.0481C26.9105 34.0481 27.7054 34.3313 28.5298 34.675C29.6093 35.1249 30.1936 35.4273 30.5089 35.6633C30.8158 35.8928 31.7684 36.74 32.1283 37.4578C32.534 38.2671 32.668 39.073 32.668 39.073C32.668 39.073 33.2078 37.6373 32.848 36.9195C32.668 36.5605 31.9483 35.4838 31.9483 35.4838C31.9483 35.4838 32.4881 35.6633 33.2078 36.2016C33.6397 36.5247 33.9245 36.8557 34.1074 37.0989C34.2936 37.3465 34.4188 37.7697 34.5014 38.1757C34.6141 38.73 34.4673 39.2524 34.4673 39.2524C34.4673 39.2524 35.007 38.7141 35.187 38.3551C35.4444 37.8415 35.187 37.0989 35.187 37.0989C35.187 37.0989 35.7267 37.9741 35.7267 38.7141C35.7267 39.9703 35.0464 41.088 34.1074 42.4827C33.2078 43.5595 32.5845 44.3607 31.9483 44.9951C31.0487 45.8924 30.4607 46.3201 29.6093 47.1678C28.5602 48.2124 27.2439 50.0039 27.0192 50.3628C26.5929 51.0435 25.8309 52.7646 26.0108 54.2002C26.2721 56.2845 29.2494 58.3364 32.3082 56.9007C33.5208 56.3315 36.6122 53.8355 39.1066 50.0958C45.3637 40.7153 43.2659 41.8834 45.9824 36.9195C47.1742 34.7416 48.9272 32.4717 50.0649 32.0454C52.2501 31.2263 55.1963 30.9068 55.3721 30.8883C55.3773 30.8876 55.3804 30.8875 55.3804 30.8875C55.3804 30.8875 55.3776 30.8877 55.3721 30.8883C55.3103 30.8972 54.9564 30.9955 56.2457 32.0454C57.4675 33.0403 56.9284 33.5548 56.3693 33.6055C55.0095 33.7291 53.4025 34.6434 53.0317 34.841C51.9692 35.4074 50.8576 36.3015 50.3121 37.6827C49.5978 39.4912 49.2751 42.4827 49.6299 46.3832C49.8908 49.2522 50.1987 53.3475 48.7766 56.3322C48.3622 57.202 47.639 58.1971 46.928 58.9077C46.082 59.7532 39.8942 61.6557 39.3252 62.2232C38.7854 62.7616 37.7119 63.7588 37.8838 66.6751C38.0638 69.7259 38.1964 70.7791 38.6035 70.9821C39.3232 71.3411 42.5638 71.5551 43.1036 71.1962C43.4384 70.9736 43.4635 70.6578 43.1036 69.7605C42.7438 68.8632 40.7646 65.8124 40.5847 65.4535C40.4238 65.1325 41.4843 63.8384 44.9029 63.4794C45.4396 63.4231 51.4786 61.6081 54.4649 60.0447C56.0025 59.2397 57.3351 58.6121 58.731 57.1984C59.9095 56.0049 61.433 54.7583 62.855 52.7962C65.3328 49.3774 66.6946 46.5425 66.6946 46.5425C66.6946 46.5425 66.8089 49.2527 66.3823 50.5318C65.9557 51.8109 65.4147 52.5119 65.4147 52.5119C65.4147 52.5119 67.9744 52.2277 69.3965 52.2277C70.9608 52.2277 72.999 52.2277 74.2315 52.3698C75.4639 52.5119 76.6893 52.8999 78.7821 53.3647C80.0619 53.6489 81.4722 53.9332 82.3372 53.9332C83.1905 53.9332 84.4703 54.0753 85.6079 53.9332C86.9896 53.7606 88.1677 53.5068 88.1677 53.5068C88.1677 53.5068 87.5004 54.5435 86.1768 55.3373C86.1768 55.3373 84.6125 56.0651 82.0528 56.0651C79.9804 56.0651 77.5534 55.6177 74.984 55.0776C74.4462 55.9578 73.1631 58.1314 72.6672 59.6183C72.2406 60.8975 71.2191 62.3449 70.5341 63.0294C69.8231 63.7401 69.1121 64.1665 68.1166 64.8771C67.5194 65.3035 66.2637 65.951 66.6946 67.4581C66.8165 67.8845 68.2125 68.6701 69.1121 69.5674C69.7608 70.2144 70.7982 71.6232 69.5387 72.1257C69.0889 72.3051 63.746 72.3051 63.566 72.1257C63.1936 71.7542 63.0349 69.7605 62.855 69.2221C62.619 68.5161 62.144 65.4823 62.5706 64.5928C63.1776 63.3274 67.6704 60.9767 68.401 58.9077C68.9648 57.3113 69.7147 55.5909 70.1588 54.6071C69.3969 54.6129 68.5842 54.6358 67.8322 54.6859C66.9223 54.7466 66.0491 54.7469 65.4147 55.0702C64.9187 55.323 63.2551 56.66 63.2551 56.66Z" fill="#FBD348"/>
<path d="M59.6558 6.78599C45.7385 6.78599 35.0112 2.05608 31.7695 0C31.7695 0 36.7142 5.18909 39.4338 6.78599C44.7457 9.90512 47.8697 10.2554 52.7362 11.1195C57.3083 11.9313 74.6173 11.272 81.3499 11.272C88.0825 11.272 89.2514 11.0375 89.2514 11.8608C89.2514 12.2314 86.7456 14.4496 86.7456 14.4496C83.3169 14.5119 73.6756 14.4496 73.6756 14.4496C73.6756 14.4496 68.0716 13.2035 66.7625 12.2066L68.0716 14.4496H57.0376C48.9936 14.4496 47.5928 13.9094 42.0761 11.4589C40.393 10.7112 33.9946 7.28944 33.9946 7.28944C33.9946 7.28944 38.3358 12.3134 40.393 14.0757C44.3203 17.4402 50.4919 18.5617 52.3621 18.5617H83.9358C83.9358 18.5617 83.3733 19.4937 83.0705 20.5093C82.7927 21.4411 82.4524 22.482 82.4524 22.8567C77.9017 22.8567 68.8197 22.8608 68.0716 22.8608C67.3236 22.8608 63.7702 21.054 61.713 20.244L63.2918 22.8608C61.6087 22.8608 57.2753 23.1128 53.7733 22.6096C50.4583 22.1333 47.716 21.1119 45.9855 20.5093C40.393 18.5617 36.7142 15.8144 36.7142 15.8144C36.7142 15.8144 39.2709 19.0076 42.0761 21.2506C45.4979 23.9865 49.7439 26.0384 52.7362 26.4122C55.9771 26.8171 73.7792 26.8317 82.195 26.7694C82.195 26.7694 82.1823 28.055 82.3288 28.7871C82.4524 29.4049 82.6997 30.1461 82.6997 30.1461C79.084 30.1461 71.8868 30.1506 70.6899 30.1506C70.338 30.1506 66.3261 28.7798 65.0793 28.0945L66.4101 30.1506C64.1036 30.0883 58.351 30.1506 55.9155 30.1506C53.4992 30.1506 50.0793 28.6225 48.1077 27.7416L48.0607 27.7206C45.8407 26.7288 39.9282 23.4745 39.9282 23.4745C39.9282 23.4745 43.2577 27.5777 44.8814 28.8421C49.5704 32.4936 50.3121 32.4663 52.908 33.3584C55.504 34.2506 84.4703 34.3023 84.4703 34.3023L85.9634 36.3631L87.4566 38.424H77.8786C77.3176 38.424 72.1922 35.8294 72.1922 35.8294L73.7993 38.424H66.4101C63.9537 38.424 63.1501 38.2753 60.4375 38.1397C57.5934 37.9976 54.7493 36.2921 54.7493 36.2921C54.7493 36.2921 57.4116 40.9917 63.5832 41.9263C67.8078 42.566 85.8383 42.674 89.9527 42.3001C92.758 42.0452 92.8001 38.6402 91.865 37.1448C91.2664 36.1876 90.1816 34.6997 89.1631 33.0231C88.2735 31.5587 87.4287 30.269 86.7456 28.0486C85.8521 25.1448 87.116 21.6836 88.8787 19.2366C90.7616 16.6227 93.2039 15.0658 93.8801 13.3281C94.9274 10.6365 93.6528 7.34339 91.4489 7.15983C87.2483 6.80997 74.4302 6.78599 59.6558 6.78599Z" fill="#FBD348"/>
<path d="M140.063 50.4436L145.986 36.0538H154.871V36.6493H154.163C153.519 36.6493 153.004 36.762 152.618 36.9874C152.35 37.1376 152.135 37.3897 151.974 37.7439C151.856 38.0014 151.797 38.6721 151.797 39.7559V54.1456C151.797 55.2616 151.856 55.9591 151.974 56.2381C152.092 56.5171 152.334 56.7639 152.698 56.9785C153.063 57.1824 153.552 57.2843 154.163 57.2843H154.871V57.8799H143.475V57.2843H144.184C144.828 57.2843 145.343 57.1717 145.729 56.9463C145.997 56.7961 146.212 56.5386 146.373 56.1737C146.491 55.9162 146.55 55.2401 146.55 54.1456V37.9692L138.18 57.8799H137.794L129.295 38.1141V53.4857C129.295 54.5588 129.322 55.2187 129.375 55.4655C129.515 56.002 129.815 56.442 130.277 56.7854C130.749 57.118 131.484 57.2843 132.482 57.2843V57.8799H125.013V57.2843H125.239C125.722 57.2951 126.172 57.2199 126.591 57.059C127.009 56.8873 127.326 56.662 127.541 56.383C127.755 56.104 127.921 55.7123 128.039 55.208C128.061 55.0899 128.072 54.5427 128.072 53.5662V39.7559C128.072 38.6506 128.013 37.9638 127.895 37.6956C127.777 37.4166 127.535 37.1751 127.17 36.9713C126.805 36.7566 126.317 36.6493 125.706 36.6493H125.013V36.0538H133.931L140.063 50.4436ZM169.197 51.6668H161.487L160.569 53.7915C160.269 54.4997 160.119 55.0846 160.119 55.546C160.119 56.1576 160.366 56.6083 160.859 56.898C161.149 57.0697 161.862 57.1985 163 57.2843V57.8799H155.741V57.2843C156.524 57.1663 157.168 56.8444 157.672 56.3186C158.176 55.782 158.799 54.6822 159.539 53.0189L167.346 35.6031H167.652L175.523 53.5018C176.274 55.1972 176.891 56.2649 177.374 56.7049C177.738 57.0375 178.253 57.2307 178.919 57.2843V57.8799H168.36V57.2843H168.794C169.642 57.2843 170.238 57.1663 170.581 56.9302C170.817 56.7585 170.935 56.5117 170.935 56.1898C170.935 55.9967 170.903 55.7981 170.839 55.5943C170.817 55.4977 170.656 55.0953 170.356 54.3871L169.197 51.6668ZM168.65 50.4757L165.398 42.9589L162.05 50.4757H168.65ZM188.319 47.3853V54.1456C188.319 55.2616 188.378 55.9591 188.496 56.2381C188.625 56.5171 188.866 56.7639 189.22 56.9785C189.585 57.1824 190.073 57.2843 190.685 57.2843H191.409V57.8799H179.997V57.2843H180.722C181.355 57.2843 181.864 57.1717 182.251 56.9463C182.53 56.7961 182.744 56.5386 182.894 56.1737C183.012 55.9162 183.072 55.2401 183.072 54.1456V39.788C183.072 38.6721 183.012 37.9746 182.894 37.6956C182.776 37.4166 182.535 37.1751 182.17 36.9713C181.816 36.7566 181.333 36.6493 180.722 36.6493H179.997V36.0538H191.409V36.6493H190.685C190.052 36.6493 189.542 36.762 189.156 36.9874C188.877 37.1376 188.657 37.3951 188.496 37.76C188.378 38.0175 188.319 38.6935 188.319 39.788V45.9689H196.029V39.788C196.029 38.6721 195.97 37.9746 195.852 37.6956C195.734 37.4166 195.492 37.1751 195.127 36.9713C194.763 36.7566 194.274 36.6493 193.663 36.6493H192.954V36.0538H204.35V36.6493H203.642C202.998 36.6493 202.489 36.762 202.113 36.9874C201.834 37.1376 201.614 37.3951 201.453 37.76C201.335 38.0175 201.276 38.6935 201.276 39.788V54.1456C201.276 55.2616 201.335 55.9591 201.453 56.2381C201.571 56.5171 201.813 56.7639 202.177 56.9785C202.542 57.1824 203.03 57.2843 203.642 57.2843H204.35V57.8799H192.954V57.2843H193.663C194.306 57.2843 194.816 57.1717 195.192 56.9463C195.471 56.7961 195.691 56.5386 195.852 56.1737C195.97 55.9162 196.029 55.2401 196.029 54.1456V47.3853H188.319ZM218.676 51.6668H210.966L210.048 53.7915C209.748 54.4997 209.598 55.0846 209.598 55.546C209.598 56.1576 209.844 56.6083 210.338 56.898C210.628 57.0697 211.341 57.1985 212.479 57.2843V57.8799H205.22V57.2843C206.003 57.1663 206.647 56.8444 207.151 56.3186C207.655 55.782 208.278 54.6822 209.018 53.0189L216.825 35.6031H217.131L225.001 53.5018C225.753 55.1972 226.37 56.2649 226.852 56.7049C227.217 57.0375 227.732 57.2307 228.398 57.2843V57.8799H217.839V57.2843H218.273C219.121 57.2843 219.717 57.1663 220.06 56.9302C220.296 56.7585 220.414 56.5117 220.414 56.1898C220.414 55.9967 220.382 55.7981 220.318 55.5943C220.296 55.4977 220.135 55.0953 219.835 54.3871L218.676 51.6668ZM218.128 50.4757L214.877 42.9589L211.529 50.4757H218.128ZM237.54 47.9326V54.049C237.54 55.2294 237.61 55.9752 237.749 56.2864C237.9 56.5868 238.157 56.8283 238.522 57.0107C238.887 57.1931 239.568 57.2843 240.566 57.2843V57.8799H229.396V57.2843C230.404 57.2843 231.086 57.1931 231.44 57.0107C231.805 56.8176 232.057 56.5707 232.196 56.2703C232.347 55.9698 232.422 55.2294 232.422 54.049V39.8846C232.422 38.7043 232.347 37.9638 232.196 37.6634C232.057 37.3522 231.805 37.1054 231.44 36.923C231.075 36.7405 230.394 36.6493 229.396 36.6493V36.0538H239.536C242.176 36.0538 244.107 36.2362 245.331 36.601C246.554 36.9659 247.552 37.6419 248.324 38.6291C249.097 39.6056 249.483 40.7538 249.483 42.0737C249.483 43.6833 248.904 45.0139 247.745 46.0655C247.005 46.7308 245.969 47.2297 244.638 47.5624L249.886 54.9504C250.573 55.9054 251.061 56.501 251.35 56.7371C251.79 57.0697 252.3 57.2521 252.88 57.2843V57.8799H246.007L238.973 47.9326H237.54ZM237.54 37.2288V46.7898H238.458C239.949 46.7898 241.065 46.6556 241.806 46.3874C242.546 46.1084 243.125 45.6148 243.544 44.9066C243.973 44.1876 244.188 43.254 244.188 42.1059C244.188 40.4426 243.796 39.214 243.013 38.4199C242.24 37.6258 240.99 37.2288 239.262 37.2288H237.54ZM273.418 50.2182L272.597 57.8799H253.218V57.2843H253.942C254.575 57.2843 255.085 57.1717 255.471 56.9463C255.75 56.7961 255.965 56.5386 256.115 56.1737C256.233 55.9162 256.292 55.2401 256.292 54.1456V39.788C256.292 38.6721 256.233 37.9746 256.115 37.6956C255.997 37.4166 255.755 37.1751 255.391 36.9713C255.036 36.7566 254.554 36.6493 253.942 36.6493H253.218V36.0538H264.855V36.6493H263.905C263.272 36.6493 262.763 36.762 262.376 36.9874C262.097 37.1376 261.877 37.3951 261.716 37.76C261.598 38.0175 261.539 38.6935 261.539 39.788V53.6949C261.539 54.8109 261.604 55.5245 261.732 55.8357C261.861 56.1362 262.113 56.3615 262.489 56.5117C262.757 56.6083 263.406 56.6566 264.437 56.6566H266.255C267.414 56.6566 268.38 56.4527 269.153 56.0449C269.925 55.6372 270.591 54.9933 271.149 54.1134C271.717 53.2335 272.254 51.9351 272.758 50.2182H273.418ZM286.665 57.2843V57.8799H275.253V57.2843H275.977C276.61 57.2843 277.12 57.1717 277.506 56.9463C277.785 56.7961 278 56.5386 278.15 56.1737C278.268 55.9162 278.327 55.2401 278.327 54.1456V39.788C278.327 38.6721 278.268 37.9746 278.15 37.6956C278.032 37.4166 277.791 37.1751 277.426 36.9713C277.072 36.7566 276.589 36.6493 275.977 36.6493H275.253V36.0538H286.665V36.6493H285.941C285.308 36.6493 284.798 36.762 284.412 36.9874C284.133 37.1376 283.913 37.3951 283.752 37.76C283.634 38.0175 283.575 38.6935 283.575 39.788V54.1456C283.575 55.2616 283.634 55.9591 283.752 56.2381C283.88 56.5171 284.122 56.7639 284.476 56.9785C284.841 57.1824 285.329 57.2843 285.941 57.2843H286.665ZM301.167 44.4076L308.845 54.0169C309.929 55.3689 310.863 56.2864 311.646 56.7693C312.215 57.1126 312.816 57.2843 313.449 57.2843V57.8799H302.085V57.2843C302.804 57.2199 303.265 57.1073 303.469 56.9463C303.684 56.7854 303.791 56.5868 303.791 56.3508C303.791 55.9001 303.297 55.0524 302.31 53.8076L297.304 47.5141L296.5 48.1901V54.1456C296.5 55.2831 296.564 55.9913 296.693 56.2703C296.822 56.5493 297.068 56.7907 297.433 56.9946C297.798 57.1878 298.383 57.2843 299.188 57.2843V57.8799H288.178V57.2843H288.902C289.535 57.2843 290.045 57.1717 290.431 56.9463C290.71 56.7961 290.925 56.5386 291.075 56.1737C291.193 55.9162 291.252 55.2401 291.252 54.1456V39.788C291.252 38.6721 291.193 37.9746 291.075 37.6956C290.957 37.4166 290.716 37.1751 290.351 36.9713C289.997 36.7566 289.514 36.6493 288.902 36.6493H288.178V36.0538H299.043V36.6493C298.302 36.6493 297.739 36.7566 297.353 36.9713C297.074 37.1215 296.854 37.3737 296.693 37.7278C296.564 37.996 296.5 38.6828 296.5 39.788V46.5805L304.596 40.0295C305.723 39.1174 306.286 38.3877 306.286 37.8404C306.286 37.4327 306.055 37.1108 305.594 36.8747C305.358 36.7566 304.773 36.6815 303.839 36.6493V36.0538H312.354V36.6493C311.592 36.703 310.991 36.8425 310.551 37.0678C310.122 37.2824 309.124 38.0229 307.558 39.2891L301.167 44.4076ZM326.808 51.6668H319.098L318.181 53.7915C317.88 54.4997 317.73 55.0846 317.73 55.546C317.73 56.1576 317.977 56.6083 318.471 56.898C318.76 57.0697 319.474 57.1985 320.611 57.2843V57.8799H313.352V57.2843C314.135 57.1663 314.779 56.8444 315.284 56.3186C315.788 55.782 316.41 54.6822 317.151 53.0189L324.957 35.6031H325.263L333.134 53.5018C333.885 55.1972 334.502 56.2649 334.985 56.7049C335.35 57.0375 335.865 57.2307 336.53 57.2843V57.8799H325.971V57.2843H326.406C327.254 57.2843 327.849 57.1663 328.193 56.9302C328.429 56.7585 328.547 56.5117 328.547 56.1898C328.547 55.9967 328.514 55.7981 328.45 55.5943C328.429 55.4977 328.268 55.0953 327.967 54.3871L326.808 51.6668ZM326.261 50.4757L323.01 42.9589L319.662 50.4757H326.261Z" fill="#FBD348"/>
<path d="M135.028 61.3011V64.9121H134.748C134.411 63.925 133.905 63.1746 133.23 62.6609C132.555 62.1472 131.817 61.8904 131.016 61.8904C130.251 61.8904 129.614 62.1069 129.105 62.54C128.597 62.9681 128.236 63.5674 128.025 64.338C127.813 65.1085 127.708 65.8992 127.708 66.7101C127.708 67.6921 127.823 68.5533 128.055 69.2937C128.287 70.034 128.66 70.5779 129.173 70.9254C129.692 71.2729 130.306 71.4467 131.016 71.4467C131.263 71.4467 131.515 71.4215 131.772 71.3711C132.034 71.3157 132.301 71.2377 132.573 71.1369V69.0066C132.573 68.6037 132.545 68.3443 132.49 68.2285C132.434 68.1076 132.318 67.9993 132.142 67.9037C131.971 67.808 131.762 67.7601 131.515 67.7601H131.251V67.4806H136.229V67.7601C135.851 67.7853 135.587 67.8382 135.436 67.9188C135.29 67.9943 135.176 68.1227 135.096 68.304C135.051 68.3997 135.028 68.6339 135.028 69.0066V71.1369C134.373 71.429 133.691 71.6481 132.981 71.7942C132.276 71.9452 131.543 72.0208 130.782 72.0208C129.81 72.0208 129.002 71.8899 128.357 71.628C127.718 71.361 127.151 71.0135 126.658 70.5855C126.169 70.1523 125.786 69.6663 125.509 69.1275C125.157 68.4325 124.981 67.6544 124.981 66.7932C124.981 65.2521 125.522 63.9502 126.605 62.8875C127.688 61.8249 129.05 61.2936 130.692 61.2936C131.2 61.2936 131.659 61.3339 132.067 61.4144C132.288 61.4547 132.646 61.5706 133.139 61.7619C133.638 61.9483 133.932 62.0415 134.023 62.0415C134.164 62.0415 134.295 61.9911 134.416 61.8904C134.537 61.7846 134.648 61.5882 134.748 61.3011H135.028ZM146.163 68.1832L145.778 71.7791H136.682V71.4995H137.022C137.319 71.4995 137.559 71.4467 137.74 71.3409C137.871 71.2704 137.972 71.1495 138.042 70.9783C138.097 70.8574 138.125 70.5401 138.125 70.0264V63.2879C138.125 62.7642 138.097 62.4368 138.042 62.3059C137.987 62.1749 137.873 62.0616 137.702 61.9659C137.536 61.8652 137.309 61.8148 137.022 61.8148H136.682V61.5353H142.144V61.8148H141.698C141.401 61.8148 141.162 61.8677 140.981 61.9735C140.85 62.044 140.747 62.1648 140.671 62.3361C140.616 62.4569 140.588 62.7742 140.588 63.2879V69.8149C140.588 70.3387 140.618 70.6736 140.679 70.8196C140.739 70.9607 140.857 71.0664 141.034 71.1369C141.16 71.1823 141.464 71.2049 141.948 71.2049H142.801C143.345 71.2049 143.798 71.1092 144.161 70.9179C144.524 70.7265 144.836 70.4243 145.098 70.0113C145.365 69.5984 145.617 68.989 145.853 68.1832H146.163ZM152.69 61.3918C154.322 61.3313 155.646 61.8073 156.664 62.8196C157.686 63.8318 158.197 65.0985 158.197 66.6194C158.197 67.9188 157.817 69.062 157.056 70.0491C156.049 71.3585 154.626 72.0132 152.788 72.0132C150.945 72.0132 149.52 71.3887 148.512 70.1398C147.717 69.1526 147.319 67.9817 147.319 66.627C147.319 65.106 147.835 63.8394 148.867 62.8271C149.905 61.8098 151.179 61.3313 152.69 61.3918ZM152.781 61.8753C151.844 61.8753 151.131 62.3537 150.643 63.3106C150.245 64.0962 150.046 65.2244 150.046 66.695C150.046 68.4425 150.353 69.7343 150.968 70.5704C151.396 71.1546 151.995 71.4467 152.766 71.4467C153.284 71.4467 153.717 71.3208 154.065 71.0689C154.508 70.7466 154.853 70.2329 155.1 69.5278C155.347 68.8177 155.47 67.8936 155.47 66.7554C155.47 65.4006 155.344 64.3883 155.092 63.7185C154.84 63.0437 154.518 62.5677 154.125 62.2907C153.738 62.0138 153.289 61.8753 152.781 61.8753ZM165.638 66.3475C166.61 66.5741 167.293 66.8486 167.685 67.1709C168.25 67.6292 168.532 68.2235 168.532 68.9537C168.532 69.7243 168.222 70.3613 167.602 70.865C166.842 71.4744 165.736 71.7791 164.286 71.7791H159.081V71.4995C159.554 71.4995 159.874 71.4567 160.04 71.3711C160.212 71.2805 160.33 71.1646 160.395 71.0236C160.466 70.8826 160.501 70.5351 160.501 69.9811V63.3333C160.501 62.7793 160.466 62.4318 160.395 62.2907C160.33 62.1447 160.212 62.0289 160.04 61.9432C159.869 61.8576 159.549 61.8148 159.081 61.8148V61.5353H163.991C165.165 61.5353 165.996 61.6411 166.484 61.8526C166.973 62.0591 167.358 62.3713 167.64 62.7893C167.922 63.2023 168.063 63.643 168.063 64.1114C168.063 64.6049 167.884 65.0456 167.527 65.4334C167.169 65.8161 166.54 66.1208 165.638 66.3475ZM162.888 66.1435C163.604 66.1435 164.13 66.0629 164.467 65.9017C164.81 65.7406 165.072 65.514 165.253 65.2218C165.434 64.9297 165.525 64.5571 165.525 64.1038C165.525 63.6505 165.434 63.2804 165.253 62.9933C165.077 62.7012 164.822 62.4796 164.49 62.3285C164.158 62.1774 163.624 62.1044 162.888 62.1094V66.1435ZM162.888 66.7327V70.0189L162.881 70.3966C162.881 70.6686 162.949 70.875 163.085 71.0161C163.226 71.152 163.432 71.22 163.704 71.22C164.107 71.22 164.477 71.1319 164.815 70.9556C165.157 70.7743 165.419 70.515 165.6 70.1775C165.782 69.8351 165.872 69.4548 165.872 69.0368C165.872 68.5584 165.762 68.1303 165.54 67.7526C165.318 67.3698 165.014 67.1029 164.626 66.9518C164.238 66.8007 163.659 66.7277 162.888 66.7327ZM175.512 68.8631H171.893L171.463 69.8602C171.322 70.1926 171.251 70.4671 171.251 70.6837C171.251 70.9707 171.367 71.1823 171.599 71.3182C171.735 71.3988 172.07 71.4593 172.603 71.4995V71.7791H169.196V71.4995C169.564 71.4441 169.866 71.2931 170.103 71.0463C170.34 70.7945 170.632 70.2782 170.979 69.4976L174.643 61.3238H174.787L178.481 69.7243C178.833 70.52 179.123 71.0211 179.349 71.2276C179.521 71.3837 179.762 71.4744 180.075 71.4995V71.7791H175.119V71.4995H175.323C175.721 71.4995 176 71.4441 176.161 71.3333C176.272 71.2528 176.328 71.1369 176.328 70.9858C176.328 70.8952 176.313 70.802 176.282 70.7063C176.272 70.661 176.197 70.4721 176.056 70.1398L175.512 68.8631ZM175.255 68.304L173.729 64.7761L172.158 68.304H175.255ZM190.024 68.1832L189.638 71.7791H180.543V71.4995H180.883C181.18 71.4995 181.419 71.4467 181.601 71.3409C181.732 71.2704 181.832 71.1495 181.903 70.9783C181.958 70.8574 181.986 70.5401 181.986 70.0264V63.2879C181.986 62.7642 181.958 62.4368 181.903 62.3059C181.847 62.1749 181.734 62.0616 181.563 61.9659C181.397 61.8652 181.17 61.8148 180.883 61.8148H180.543V61.5353H186.005V61.8148H185.559C185.262 61.8148 185.023 61.8677 184.841 61.9735C184.711 62.044 184.607 62.1648 184.532 62.3361C184.476 62.4569 184.449 62.7742 184.449 63.2879V69.8149C184.449 70.3387 184.479 70.6736 184.539 70.8196C184.6 70.9607 184.718 71.0664 184.894 71.1369C185.02 71.1823 185.325 71.2049 185.808 71.2049H186.662C187.206 71.2049 187.659 71.1092 188.022 70.9179C188.384 70.7265 188.697 70.4243 188.959 70.0113C189.226 69.5984 189.477 68.989 189.714 68.1832H190.024ZM199.157 68.8631H195.538L195.108 69.8602C194.967 70.1926 194.896 70.4671 194.896 70.6837C194.896 70.9707 195.012 71.1823 195.244 71.3182C195.38 71.3988 195.715 71.4593 196.249 71.4995V71.7791H192.842V71.4995C193.209 71.4441 193.511 71.2931 193.748 71.0463C193.985 70.7945 194.277 70.2782 194.624 69.4976L198.288 61.3238H198.432L202.126 69.7243C202.478 70.52 202.768 71.0211 202.995 71.2276C203.166 71.3837 203.408 71.4744 203.72 71.4995V71.7791H198.764V71.4995H198.968C199.366 71.4995 199.646 71.4441 199.807 71.3333C199.917 71.2528 199.973 71.1369 199.973 70.9858C199.973 70.8952 199.958 70.802 199.928 70.7063C199.917 70.661 199.842 70.4721 199.701 70.1398L199.157 68.8631ZM198.9 68.304L197.374 64.7761L195.803 68.304H198.9ZM211.168 61.3011L211.252 64.7157H210.942C210.796 63.8595 210.436 63.1721 209.862 62.6534C209.292 62.1296 208.676 61.8677 208.011 61.8677C207.497 61.8677 207.089 62.0062 206.787 62.2832C206.49 62.5552 206.341 62.8699 206.341 63.2275C206.341 63.4541 206.394 63.6556 206.5 63.8318C206.646 64.0685 206.88 64.3027 207.202 64.5344C207.439 64.7006 207.986 64.9952 208.842 65.4183C210.04 66.0075 210.849 66.564 211.267 67.0878C211.68 67.6116 211.886 68.2109 211.886 68.8857C211.886 69.7419 211.551 70.4797 210.881 71.0992C210.217 71.7136 209.371 72.0208 208.343 72.0208C208.021 72.0208 207.716 71.9881 207.429 71.9226C207.142 71.8571 206.782 71.7337 206.349 71.5524C206.107 71.4517 205.908 71.4013 205.752 71.4013C205.621 71.4013 205.483 71.4517 205.337 71.5524C205.19 71.6531 205.072 71.8068 204.981 72.0132H204.702V68.1454H204.981C205.203 69.2332 205.629 70.0642 206.258 70.6383C206.893 71.2074 207.575 71.492 208.305 71.492C208.869 71.492 209.318 71.3384 209.65 71.0312C209.987 70.724 210.156 70.3664 210.156 69.9584C210.156 69.7167 210.091 69.4825 209.96 69.2559C209.834 69.0293 209.64 68.8152 209.378 68.6138C209.116 68.4073 208.653 68.1404 207.988 67.813C207.056 67.3547 206.387 66.9644 205.979 66.6421C205.571 66.3198 205.256 65.9597 205.034 65.5618C204.818 65.1639 204.709 64.7258 204.709 64.2473C204.709 63.4315 205.009 62.7365 205.608 62.1623C206.208 61.5882 206.963 61.3011 207.875 61.3011C208.207 61.3011 208.529 61.3414 208.842 61.422C209.078 61.4824 209.366 61.5957 209.703 61.7619C210.045 61.9231 210.285 62.0037 210.421 62.0037C210.552 62.0037 210.655 61.9634 210.73 61.8828C210.806 61.8022 210.876 61.6083 210.942 61.3011H211.168ZM218.179 71.4995V71.7791H212.823V71.4995H213.163C213.46 71.4995 213.699 71.4467 213.881 71.3409C214.011 71.2704 214.112 71.1495 214.183 70.9783C214.238 70.8574 214.266 70.5401 214.266 70.0264V63.2879C214.266 62.7642 214.238 62.4368 214.183 62.3059C214.127 62.1749 214.014 62.0616 213.843 61.9659C213.677 61.8652 213.45 61.8148 213.163 61.8148H212.823V61.5353H218.179V61.8148H217.839C217.542 61.8148 217.303 61.8677 217.121 61.9735C216.99 62.044 216.887 62.1648 216.812 62.3361C216.756 62.4569 216.729 62.7742 216.729 63.2879V70.0264C216.729 70.5502 216.756 70.8776 216.812 71.0085C216.872 71.1394 216.985 71.2553 217.152 71.356C217.323 71.4517 217.552 71.4995 217.839 71.4995H218.179ZM224.978 68.8631H221.359L220.929 69.8602C220.788 70.1926 220.717 70.4671 220.717 70.6837C220.717 70.9707 220.833 71.1823 221.065 71.3182C221.201 71.3988 221.536 71.4593 222.069 71.4995V71.7791H218.662V71.4995C219.03 71.4441 219.332 71.2931 219.569 71.0463C219.806 70.7945 220.098 70.2782 220.445 69.4976L224.109 61.3238H224.253L227.947 69.7243C228.299 70.52 228.589 71.0211 228.816 71.2276C228.987 71.3837 229.229 71.4744 229.541 71.4995V71.7791H224.585V71.4995H224.789C225.187 71.4995 225.466 71.4441 225.628 71.3333C225.738 71.2528 225.794 71.1369 225.794 70.9858C225.794 70.8952 225.779 70.802 225.748 70.7063C225.738 70.661 225.663 70.4721 225.522 70.1398L224.978 68.8631ZM224.721 68.304L223.195 64.7761L221.624 68.304H224.721ZM242.202 61.5353V64.3078H241.93C241.769 63.6682 241.59 63.2099 241.394 62.9329C241.197 62.6508 240.928 62.4267 240.585 62.2605C240.394 62.1699 240.059 62.1246 239.581 62.1246H238.818V70.0264C238.818 70.5502 238.845 70.8776 238.901 71.0085C238.961 71.1394 239.074 71.2553 239.241 71.356C239.412 71.4517 239.643 71.4995 239.936 71.4995H240.276V71.7791H234.912V71.4995H235.252C235.549 71.4995 235.788 71.4467 235.97 71.3409C236.1 71.2704 236.204 71.1495 236.279 70.9783C236.335 70.8574 236.362 70.5401 236.362 70.0264V62.1246H235.622C234.932 62.1246 234.431 62.2706 234.119 62.5627C233.681 62.9706 233.404 63.5523 233.288 64.3078H233.001V61.5353H242.202ZM246.871 67.1104V69.9811C246.871 70.5351 246.903 70.8851 246.969 71.0312C247.039 71.1722 247.16 71.2855 247.331 71.3711C247.503 71.4567 247.822 71.4995 248.291 71.4995V71.7791H243.048V71.4995C243.521 71.4995 243.841 71.4567 244.007 71.3711C244.179 71.2805 244.297 71.1646 244.362 71.0236C244.433 70.8826 244.468 70.5351 244.468 69.9811V63.3333C244.468 62.7793 244.433 62.4318 244.362 62.2907C244.297 62.1447 244.179 62.0289 244.007 61.9432C243.836 61.8576 243.516 61.8148 243.048 61.8148V61.5353H247.807C249.046 61.5353 249.953 61.6209 250.527 61.7922C251.101 61.9634 251.569 62.2807 251.932 62.744C252.295 63.2023 252.476 63.7412 252.476 64.3606C252.476 65.1161 252.204 65.7406 251.66 66.2341C251.312 66.5464 250.826 66.7806 250.202 66.9367L252.665 70.4042C252.987 70.8524 253.216 71.1319 253.352 71.2427C253.559 71.3988 253.798 71.4844 254.07 71.4995V71.7791H250.844L247.543 67.1104H246.871ZM246.871 62.0868V66.5741H247.301C248.001 66.5741 248.525 66.5111 248.872 66.3852C249.22 66.2543 249.492 66.0226 249.688 65.6902C249.89 65.3528 249.99 64.9146 249.99 64.3758C249.99 63.5951 249.807 63.0185 249.439 62.6458C249.076 62.2731 248.49 62.0868 247.679 62.0868H246.871ZM260.378 68.8631H256.759L256.329 69.8602C256.188 70.1926 256.117 70.4671 256.117 70.6837C256.117 70.9707 256.233 71.1823 256.465 71.3182C256.601 71.3988 256.935 71.4593 257.469 71.4995V71.7791H254.062V71.4995C254.43 71.4441 254.732 71.2931 254.969 71.0463C255.206 70.7945 255.498 70.2782 255.845 69.4976L259.509 61.3238H259.653L263.347 69.7243C263.699 70.52 263.989 71.0211 264.215 71.2276C264.387 71.3837 264.628 71.4744 264.941 71.4995V71.7791H259.985V71.4995H260.189C260.587 71.4995 260.866 71.4441 261.027 71.3333C261.138 71.2528 261.194 71.1369 261.194 70.9858C261.194 70.8952 261.179 70.802 261.148 70.7063C261.138 70.661 261.063 70.4721 260.922 70.1398L260.378 68.8631ZM260.121 68.304L258.595 64.7761L257.024 68.304H260.121ZM265.326 71.7791V71.4995H265.666C265.963 71.4995 266.19 71.4542 266.346 71.3636C266.507 71.2679 266.625 71.1394 266.701 70.9783C266.746 70.8725 266.769 70.5552 266.769 70.0264V63.2879C266.769 62.7642 266.741 62.4368 266.686 62.3059C266.63 62.1749 266.517 62.0616 266.346 61.9659C266.18 61.8652 265.953 61.8148 265.666 61.8148H265.326V61.5353H269.911C271.135 61.5353 272.12 61.7015 272.865 62.0339C273.777 62.4418 274.467 63.0588 274.935 63.8847C275.408 64.7107 275.645 65.6449 275.645 66.6874C275.645 67.4076 275.529 68.0724 275.298 68.6818C275.066 69.2861 274.766 69.7872 274.399 70.1851C274.031 70.5779 273.605 70.8952 273.122 71.1369C272.644 71.3736 272.057 71.5575 271.362 71.6884C271.055 71.7488 270.571 71.7791 269.911 71.7791H265.326ZM269.231 62.117V70.1095C269.231 70.5326 269.252 70.7919 269.292 70.8876C269.332 70.9833 269.4 71.0564 269.496 71.1067C269.632 71.1823 269.828 71.22 270.085 71.22C270.926 71.22 271.568 70.933 272.012 70.3588C272.616 69.5832 272.918 68.3796 272.918 66.7478C272.918 65.4334 272.712 64.3833 272.299 63.5977C271.971 62.9832 271.551 62.5652 271.037 62.3436C270.674 62.1875 270.073 62.112 269.231 62.117ZM280.518 62.1246V66.2946H280.722C281.371 66.2946 281.842 66.0906 282.134 65.6827C282.426 65.2747 282.613 64.6729 282.693 63.8772H282.98V69.2408H282.693C282.633 68.6566 282.505 68.1781 282.308 67.8054C282.117 67.4328 281.893 67.1835 281.636 67.0576C281.379 66.9266 281.006 66.8611 280.518 66.8611V69.7469C280.518 70.311 280.54 70.656 280.586 70.7819C280.636 70.9078 280.727 71.011 280.858 71.0916C280.989 71.1722 281.2 71.2125 281.492 71.2125H282.104C283.061 71.2125 283.827 70.9909 284.401 70.5477C284.98 70.1045 285.395 69.4296 285.647 68.5231H285.927L285.466 71.7791H276.612V71.4995H276.952C277.249 71.4995 277.488 71.4467 277.67 71.3409C277.801 71.2704 277.901 71.1495 277.972 70.9783C278.027 70.8574 278.055 70.5401 278.055 70.0264V63.2879C278.055 62.8246 278.042 62.54 278.017 62.4343C277.967 62.258 277.874 62.122 277.738 62.0263C277.546 61.8853 277.284 61.8148 276.952 61.8148H276.612V61.5353H285.186V64.5646H284.899C284.753 63.8243 284.547 63.293 284.28 62.9706C284.018 62.6483 283.645 62.4116 283.162 62.2605C282.88 62.1699 282.351 62.1246 281.575 62.1246H280.518ZM300.816 61.3011V64.8517H300.522C300.3 63.925 299.887 63.2149 299.283 62.7213C298.678 62.2278 297.994 61.981 297.228 61.981C296.588 61.981 296.002 62.1648 295.468 62.5325C294.934 62.9001 294.544 63.3811 294.297 63.9754C293.98 64.7358 293.821 65.5819 293.821 66.5136C293.821 67.4302 293.937 68.2663 294.169 69.0217C294.4 69.7721 294.763 70.3412 295.256 70.729C295.75 71.1117 296.389 71.3031 297.175 71.3031C297.82 71.3031 298.409 71.1621 298.943 70.8801C299.482 70.5981 300.048 70.1121 300.643 69.4221V70.3059C300.068 70.9053 299.469 71.3409 298.845 71.6129C298.225 71.8798 297.5 72.0132 296.669 72.0132C295.576 72.0132 294.604 71.7942 293.753 71.356C292.907 70.9179 292.252 70.2883 291.789 69.4674C291.331 68.6465 291.101 67.7727 291.101 66.846C291.101 65.869 291.356 64.9423 291.864 64.066C292.378 63.1897 293.068 62.5098 293.934 62.0263C294.806 61.5429 295.73 61.3011 296.707 61.3011C297.427 61.3011 298.187 61.4572 298.988 61.7695C299.452 61.9508 299.746 62.0415 299.872 62.0415C300.033 62.0415 300.172 61.9835 300.288 61.8677C300.408 61.7468 300.486 61.558 300.522 61.3011H300.816ZM307.646 61.3918C309.277 61.3313 310.602 61.8073 311.619 62.8196C312.641 63.8318 313.153 65.0985 313.153 66.6194C313.153 67.9188 312.772 69.062 312.012 70.0491C311.005 71.3585 309.582 72.0132 307.744 72.0132C305.9 72.0132 304.475 71.3887 303.468 70.1398C302.672 69.1526 302.274 67.9817 302.274 66.627C302.274 65.106 302.791 63.8394 303.823 62.8271C304.86 61.8098 306.135 61.3313 307.646 61.3918ZM307.736 61.8753C306.799 61.8753 306.087 62.3537 305.598 63.3106C305.2 64.0962 305.001 65.2244 305.001 66.695C305.001 68.4425 305.309 69.7343 305.923 70.5704C306.351 71.1546 306.951 71.4467 307.721 71.4467C308.24 71.4467 308.673 71.3208 309.02 71.0689C309.464 70.7466 309.809 70.2329 310.055 69.5278C310.302 68.8177 310.426 67.8936 310.426 66.7554C310.426 65.4006 310.3 64.3883 310.048 63.7185C309.796 63.0437 309.474 62.5677 309.081 62.2907C308.693 62.0138 308.245 61.8753 307.736 61.8753ZM317.821 67.1104V69.9811C317.821 70.5351 317.854 70.8851 317.919 71.0312C317.99 71.1722 318.111 71.2855 318.282 71.3711C318.453 71.4567 318.773 71.4995 319.242 71.4995V71.7791H313.999V71.4995C314.472 71.4995 314.792 71.4567 314.958 71.3711C315.129 71.2805 315.248 71.1646 315.313 71.0236C315.384 70.8826 315.419 70.5351 315.419 69.9811V63.3333C315.419 62.7793 315.384 62.4318 315.313 62.2907C315.248 62.1447 315.129 62.0289 314.958 61.9432C314.787 61.8576 314.467 61.8148 313.999 61.8148V61.5353H318.758C319.997 61.5353 320.903 61.6209 321.478 61.7922C322.052 61.9634 322.52 62.2807 322.883 62.744C323.245 63.2023 323.427 63.7412 323.427 64.3606C323.427 65.1161 323.155 65.7406 322.611 66.2341C322.263 66.5464 321.777 66.7806 321.153 66.9367L323.615 70.4042C323.938 70.8524 324.167 71.1319 324.303 71.2427C324.509 71.3988 324.749 71.4844 325.021 71.4995V71.7791H321.795L318.494 67.1104H317.821ZM317.821 62.0868V66.5741H318.252C318.952 66.5741 319.476 66.5111 319.823 66.3852C320.171 66.2543 320.443 66.0226 320.639 65.6902C320.841 65.3528 320.941 64.9146 320.941 64.3758C320.941 63.5951 320.757 63.0185 320.39 62.6458C320.027 62.2731 319.44 62.0868 318.63 62.0868H317.821ZM329.07 67.1407V69.9811C329.07 70.5351 329.102 70.8851 329.168 71.0312C329.238 71.1722 329.359 71.2855 329.531 71.3711C329.707 71.4567 330.027 71.4995 330.49 71.4995V71.7791H325.285V71.4995C325.758 71.4995 326.078 71.4567 326.244 71.3711C326.416 71.2805 326.534 71.1646 326.599 71.0236C326.67 70.8826 326.705 70.5351 326.705 69.9811V63.3333C326.705 62.7793 326.67 62.4318 326.599 62.2907C326.534 62.1447 326.416 62.0289 326.244 61.9432C326.073 61.8576 325.753 61.8148 325.285 61.8148V61.5353H329.75C331.22 61.5353 332.275 61.7972 332.915 62.321C333.555 62.8447 333.874 63.4994 333.874 64.2851C333.874 64.9499 333.668 65.519 333.255 65.9924C332.842 66.4658 332.273 66.7881 331.548 66.9594C331.059 67.0802 330.233 67.1407 329.07 67.1407ZM329.07 62.1246V66.5514C329.236 66.5615 329.362 66.5665 329.447 66.5665C330.062 66.5665 330.535 66.3852 330.868 66.0226C331.2 65.655 331.366 65.0884 331.366 64.3229C331.366 63.5624 331.2 63.0059 330.868 62.6534C330.535 62.3008 330.039 62.1246 329.379 62.1246H329.07ZM334.864 69.4523C335.216 69.4523 335.514 69.5757 335.755 69.8225C336.002 70.0692 336.126 70.3664 336.126 70.7139C336.126 71.0614 336.002 71.3585 335.755 71.6053C335.509 71.847 335.211 71.9679 334.864 71.9679C334.516 71.9679 334.219 71.847 333.973 71.6053C333.731 71.3585 333.61 71.0614 333.61 70.7139C333.61 70.3664 333.731 70.0692 333.973 69.8225C334.219 69.5757 334.516 69.4523 334.864 69.4523Z" fill="#FBD348"/>
</svg>
